<?xml version="1.0" encoding="utf-8"?>
<!-- Generator: Adobe Illustrator 15.0.2, SVG Export Plug-In . SVG Version: 6.00 Build 0)  -->
<!DOCTYPE svg PUBLIC "-//W3C//DTD SVG 1.1//EN" "http://www.w3.org/Graphics/SVG/1.1/DTD/svg11.dtd">
<svg version="1.1" id="Layer_1" xmlns="http://www.w3.org/2000/svg" xmlns:xlink="http://www.w3.org/1999/xlink" x="0px" y="0px"
	 width="327.405px" height="327.405px" viewBox="0 0 327.405 327.405" enable-background="new 0 0 327.405 327.405"
	 xml:space="preserve">
<path fill="#404040" d="M232.201,21.887l-9-5c0.345,0.614,36.421,75.941,27.407,132.629
	c-12.877,80.982-58.29,133.258-127.09,155.375c-15.185,4.881-30.11,7.683-43.638,9.206c20.095-15.608,29.293-44.668,33.833-81.554
	l10.37-88.151h55.31v-27.655h-51.853l2.593-22.038c3.457-31.976,16.42-60.062,45.802-60.062c8.643,0,15.988,1.729,22.471,4.321
	l6.913-27.655c-6.05-3.457-16.42-6.05-29.384-6.481c-58.334,0-77.346,49.692-82.532,92.039l-2.592,19.876H48.033v27.655h39.754
	l-9.938,85.125c-5.185,44.076-15.123,67.842-41.915,67.842c-9.075,0-16.852-1.298-24.198-4.755l-6.914,26.792
	c7.345,4.32,19.445,7.346,33.705,7.346c1.591,0,3.148-0.038,4.674-0.113c2.458,0.074,5.083,0.118,7.86,0.118
	c6.91,0,14.758-0.271,23.273-1.011c28.427-2.473,69.918-10.926,106.149-37.158c41.355-29.942,67.258-76.148,76.986-137.335
	C267.081,90.813,233.687,24.529,232.201,21.887z"/>
<path fill="#BD1622" d="M223.201,16.887c0,0-25.31,52.175-25.31,112.565c0,64.645-17.333,113.219-51.517,144.373
	c-21.838,19.902-47.284,29.441-68.399,33.944c18.418-16.019,27.063-44.182,31.416-79.55l10.37-88.15h55.31v-27.655h-51.853
	l2.593-22.037c3.457-31.976,16.42-60.062,45.803-60.062c8.643,0,15.988,1.729,22.47,4.321l6.913-27.655
	c-6.049-3.457-16.42-6.05-29.383-6.481c-58.334,0-77.346,49.692-82.532,92.039l-2.592,19.876H43.71v27.655h39.754l-9.938,85.126
	c-5.185,44.076-15.124,67.841-41.915,67.841c-9.075,0-16.852-1.298-24.198-4.754L0.5,315.075c7.34,4.317,19.429,7.342,33.677,7.346
	c1.429,0.107,4.477,0.289,8.806,0.289c20.719,0,70.589-4.176,110.7-40.661c36.634-33.322,55.209-84.663,55.209-152.596
	c0-57.457,23.31-107.565,23.31-107.565L223.201,16.887z"/>
</svg>
