<?xml version="1.0" encoding="utf-8"?>
<!-- Generator: Adobe Illustrator 15.0.2, SVG Export Plug-In . SVG Version: 6.00 Build 0)  -->
<!DOCTYPE svg PUBLIC "-//W3C//DTD SVG 1.1//EN" "http://www.w3.org/Graphics/SVG/1.1/DTD/svg11.dtd">
<svg version="1.1" id="Layer_1" xmlns="http://www.w3.org/2000/svg" xmlns:xlink="http://www.w3.org/1999/xlink" x="0px" y="0px"
	 width="255px" height="270px" viewBox="0 0 255 270" enable-background="new 0 0 255 270" xml:space="preserve">
<rect display="none" fill="#FFFFFF" width="931" height="310"/>
<g>
	<g>
		
			<linearGradient id="SVGID_1_" gradientUnits="userSpaceOnUse" x1="359.207" y1="99.5947" x2="359.207" y2="60.9111" gradientTransform="matrix(0.7071 0.7071 0.7071 -0.7071 -204.6779 -59.52)">
			<stop  offset="0" style="stop-color:#FFFFFF"/>
			<stop  offset="1" style="stop-color:#000000"/>
		</linearGradient>
		<path fill="url(#SVGID_1_)" d="M158.465,171.304L69.525,82.365L57.748,94.141l88.939,88.939c1.637,1.638,5.602,0.329,8.854-2.923
			C158.793,176.906,160.102,172.942,158.465,171.304z"/>
	</g>
	<g>
		<path fill="none" stroke="#231F20" stroke-width="2" d="M158.465,171.304L69.525,82.365L57.748,94.141l88.939,88.939
			c1.637,1.638,5.602,0.329,8.854-2.923C158.793,176.906,160.102,172.942,158.465,171.304z"/>
	</g>
</g>
<ellipse transform="matrix(0.7071 -0.7071 0.7071 0.7071 -43.7262 70.7221)" fill="#7B7E80" stroke="#231F20" stroke-width="2" cx="63.501" cy="88.14" rx="8.327" ry="4.194"/>
<ellipse transform="matrix(0.7072 -0.707 0.707 0.7072 -43.7279 70.7011)" fill="#231F20" cx="63.495" cy="88.144" rx="4.089" ry="2.059"/>
<linearGradient id="SVGID_2_" gradientUnits="userSpaceOnUse" x1="339.9492" y1="114.7422" x2="655.5914" y2="-282.2764" gradientTransform="matrix(0.7071 0.7071 0.7071 -0.7071 -204.6779 -59.52)">
	<stop  offset="0" style="stop-color:#FFFFFF"/>
	<stop  offset="1" style="stop-color:#000000"/>
</linearGradient>
<polyline fill="url(#SVGID_2_)" points="131.67,36.919 35.398,133.191 114.357,212.151 190.303,136.04 188.717,93.967 
	131.67,36.919 "/>
<path fill="#231F20" d="M164.945,145.33c-1.943,1.945-5.125,1.945-7.07,0L98.352,85.806c-1.945-1.945-1.945-5.126,0-7.071
	l30.305-30.306c1.945-1.945,5.127-1.945,7.07,0l59.525,59.525c1.945,1.945,1.945,5.126,0,7.071L164.945,145.33z"/>
<path fill="#BE1E2D" d="M124.955,185.321c-1.943,1.945-5.127,1.945-7.07,0l-59.525-59.524c-1.943-1.945-1.943-5.126,0-7.071
	l30.307-30.305c1.943-1.945,5.125-1.945,7.07,0l59.525,59.524c1.943,1.944,1.943,5.126,0,7.071L124.955,185.321z"/>
<path fill="#231F20" d="M115.662,187.542l-59.523-59.524c-1.945-1.945-5.127-1.945-7.07,0l-9.883,9.881l67.047,66.146l9.432-9.431
	C117.607,192.669,117.607,189.487,115.662,187.542z"/>
<polygon fill="none" stroke="#231F20" stroke-width="3" points="131.67,36.919 35.398,133.191 114.357,212.151 190.303,136.04 
	190.133,95.381 "/>
<polyline fill="#FFFFFF" stroke="#231F20" stroke-width="3" points="188.717,95.153 168.473,115.398 188.887,135.813 "/>
<linearGradient id="SVGID_3_" gradientUnits="userSpaceOnUse" x1="414.8594" y1="227.0547" x2="414.8594" y2="46.0547" gradientTransform="matrix(1 0 0 -1 0.1401 269.0547)">
	<stop  offset="0" style="stop-color:#FFFFFF"/>
	<stop  offset="1" style="stop-color:#000000"/>
</linearGradient>
<rect x="6" y="25" display="none" opacity="0.62" fill="url(#SVGID_3_)" enable-background="new    " width="818" height="219"/>
<g>
	<path fill="none" stroke="#231F20" stroke-width="3" d="M151.23,187.507l5.422,5.42c1.945,1.945,5.127,1.945,7.07,0l12.285-12.285
		c1.943-1.944,5.127-1.944,7.07,0l3.732,3.733"/>
</g>
<circle fill="#BE1E2D" cx="188.973" cy="186.535" r="6.334"/>
<g>
	<g>
		
			<linearGradient id="SVGID_4_" gradientUnits="userSpaceOnUse" x1="368.4463" y1="92.9951" x2="368.4463" y2="49.8872" gradientTransform="matrix(0.7071 0.7071 0.7071 -0.7071 -204.6779 -59.52)">
			<stop  offset="0" style="stop-color:#FFFFFF"/>
			<stop  offset="1" style="stop-color:#000000"/>
		</linearGradient>
		<path fill="url(#SVGID_4_)" d="M159.822,182.976L70.258,93.409l-13.123,13.123l89.566,89.566
			c2.002,2.002,6.562,0.688,10.188-2.935C160.512,189.539,161.826,184.978,159.822,182.976z"/>
	</g>
	<g>
		<path fill="none" stroke="#231F20" stroke-width="2" d="M159.822,182.976L70.258,93.409l-13.123,13.123l89.566,89.566
			c2.002,2.002,6.562,0.688,10.188-2.935C160.512,189.539,161.826,184.978,159.822,182.976z"/>
	</g>
</g>
<ellipse transform="matrix(0.7071 -0.7071 0.7071 0.7071 -51.9824 74.1719)" fill="#7B7E80" stroke="#231F20" stroke-width="2" cx="63.535" cy="99.829" rx="9.279" ry="5.128"/>
<ellipse transform="matrix(0.7072 -0.7071 0.7071 0.7072 -51.984 74.1814)" fill="#231F20" cx="63.562" cy="99.848" rx="4.557" ry="2.519"/>
<rect id="_x3C_Slice_x3E__8_" x="0.002" y="0.38" fill="none" width="254.996" height="270"/>
</svg>
